<svg width="589" height="220" viewBox="0 0 589 220" fill="none" xmlns="http://www.w3.org/2000/svg">
<path d="M177.713 56.6883C177.713 51.2109 178.591 46.1547 180.346 41.5199C182.102 36.8851 184.524 32.9175 187.614 29.6169C190.774 26.3164 194.531 23.7532 198.885 21.9274C203.31 20.0313 208.155 19.0833 213.422 19.0833C215.809 19.0833 218.021 19.2589 220.058 19.61C222.095 19.9611 223.991 20.3474 225.746 20.7687C227.502 21.1198 229.117 21.4709 230.592 21.822C232.066 22.1732 233.436 22.3488 234.7 22.3488C235.332 22.3488 235.858 22.2785 236.28 22.138C236.701 21.9976 236.982 21.6465 237.123 21.0847H238.176V43.8373L237.123 44.1533C236.631 40.7826 235.613 37.7981 234.068 35.1997C232.523 32.5312 230.732 30.2841 228.696 28.4582C226.659 26.6324 224.447 25.263 222.06 24.3501C219.742 23.367 217.46 22.8754 215.213 22.8754C209.665 22.8754 205.346 25.7897 202.256 31.6183C199.236 37.3767 197.727 45.5929 197.727 56.267C197.727 67.0112 199.272 75.3327 202.362 81.2319C205.522 87.0602 209.946 89.9745 215.634 89.9745C217.741 89.9745 219.953 89.5534 222.27 88.7106C224.587 87.8679 226.729 86.5685 228.696 84.813C230.732 83.0575 232.523 80.8453 234.068 78.177C235.613 75.5082 236.631 72.3483 237.123 68.6967L238.176 69.0128V91.7651H237.123C236.982 91.2034 236.701 90.8523 236.28 90.7118C235.858 90.5717 235.332 90.5012 234.7 90.5012C233.436 90.5012 232.066 90.6767 230.592 91.0278C229.117 91.3789 227.502 91.7651 225.746 92.1867C223.991 92.5378 222.06 92.8889 219.952 93.24C217.916 93.5911 215.669 93.7667 213.211 93.7667C207.944 93.7667 203.134 92.8889 198.78 91.1334C194.426 89.3073 190.669 86.7796 187.509 83.5491C184.419 80.2486 181.997 76.3159 180.241 71.7516C178.556 67.1867 177.713 62.1657 177.713 56.6883ZM272.183 58.163C271.972 53.5283 271.2 49.8766 269.866 47.2081C268.531 44.5396 266.916 43.2053 265.02 43.2053C263.335 43.2053 262.281 44.2235 261.86 46.26C261.439 48.2263 261.298 50.7895 261.439 53.9496C260.666 55.1434 259.332 56.1265 257.436 56.899C255.61 57.6715 253.714 58.0577 251.748 58.0577C249.922 58.0577 248.307 57.6013 246.902 56.6883C245.498 55.7754 244.796 54.1954 244.796 51.9482C244.796 50.1224 245.322 48.437 246.376 46.8921C247.429 45.3472 248.904 44.048 250.8 42.9946C252.696 41.871 254.978 41.0284 257.646 40.4666C260.315 39.8345 263.23 39.5185 266.39 39.5185C270.182 39.5185 273.658 39.9399 276.818 40.7826C280.048 41.6253 282.787 42.8191 285.034 44.364C287.281 45.9089 289.037 47.7699 290.301 49.9468C291.565 52.1238 292.197 54.5114 292.197 57.1097V71.7516C292.197 75.1926 292.443 77.8959 292.934 79.8625C293.496 81.8286 294.409 82.8119 295.673 82.8119C297.007 82.8119 297.92 82.1447 298.412 80.8103L300.097 82.8119C299.886 83.8652 299.289 85.0236 298.307 86.2879C297.323 87.5518 296.059 88.7457 294.514 89.869C293.039 90.9928 291.319 91.9406 289.353 92.7133C287.457 93.4155 285.42 93.7667 283.243 93.7667C280.505 93.7667 278.152 93.17 276.186 91.9761C274.29 90.7823 273.061 89.2023 272.499 87.2357C271.094 88.9912 269.198 90.5362 266.811 91.8706C264.423 93.1345 261.333 93.7667 257.541 93.7667C252.204 93.7667 247.92 92.4323 244.69 89.7639C241.46 87.0251 239.845 83.3736 239.845 78.8087C239.845 76.0704 240.407 73.8232 241.53 72.0672C242.724 70.3117 244.269 68.8372 246.165 67.6434C248.061 66.4495 250.168 65.4662 252.485 64.694C254.873 63.9213 257.26 63.2191 259.648 62.5873C262.036 61.9552 264.318 61.323 266.495 60.6913C268.742 60.0591 270.638 59.2164 272.183 58.163ZM259.964 77.5448C259.964 80.0026 260.596 81.9691 261.86 83.4436C263.194 84.9185 264.845 85.6557 266.811 85.6557C269.269 85.6557 271.059 84.4269 272.183 81.9691V61.7446C270.638 63.149 269.128 64.4479 267.653 65.6418C266.179 66.8356 264.845 68.0295 263.651 69.2233C262.527 70.3471 261.614 71.576 260.912 72.9099C260.28 74.2443 259.964 75.7893 259.964 77.5448ZM301.981 90.6067C303.807 89.6234 305.317 88.149 306.511 86.1824C307.705 84.1458 308.302 81.8286 308.302 79.2303V43.2053H302.298V39.5185H308.407C308.407 36.5691 309.004 33.8304 310.198 31.3023C311.392 28.704 313.042 26.4568 315.148 24.5608C317.255 22.6647 319.748 21.1901 322.628 20.1367C325.506 19.0131 328.631 18.4513 332.002 18.4513C334.32 18.4513 336.462 18.7322 338.428 19.294C340.394 19.7855 342.079 20.4878 343.484 21.4007C344.889 22.3136 345.977 23.4372 346.749 24.7715C347.592 26.0355 348.014 27.4049 348.014 28.8796C348.014 30.9863 347.276 32.6015 345.801 33.725C344.397 34.7784 342.852 35.3051 341.167 35.3051C339.762 35.3051 338.428 34.954 337.164 34.2517C335.97 33.4793 335.197 32.3557 334.846 30.8809C335.338 28.4231 335.338 26.3515 334.846 24.6661C334.355 22.9807 333.582 22.138 332.529 22.138C331.757 22.138 331.09 22.6296 330.527 23.6128C329.966 24.5959 329.51 25.9302 329.158 27.6155C328.877 29.2307 328.667 31.0917 328.526 33.1983C328.386 35.2348 328.316 37.3416 328.316 39.5185H334.846V43.2053H328.316V79.6515C328.316 82.1097 328.912 84.3214 330.106 86.2879C331.3 88.254 332.81 89.6935 334.636 90.6067V93.24H301.981V90.6067ZM338.499 90.6067C340.325 89.6234 341.835 88.149 343.029 86.1824C344.223 84.1458 344.82 81.8286 344.82 79.2303V43.2053H338.815V39.5185H344.925C344.925 36.5691 345.522 33.8304 346.716 31.3023C347.91 28.704 349.56 26.4568 351.667 24.5608C353.773 22.6647 356.266 21.1901 359.145 20.1367C362.025 19.0131 365.15 18.4513 368.52 18.4513C370.838 18.4513 372.98 18.7322 374.946 19.294C376.912 19.7855 378.597 20.4878 380.002 21.4007C381.407 22.3136 382.495 23.4372 383.268 24.7715C384.11 26.0355 384.531 27.4049 384.531 28.8796C384.531 30.9863 383.794 32.6015 382.319 33.725C380.915 34.7784 379.37 35.3051 377.684 35.3051C376.28 35.3051 374.946 34.954 373.682 34.2517C372.488 33.4793 371.716 32.3557 371.365 30.8809C371.856 28.4231 371.856 26.3515 371.365 24.6661C370.873 22.9807 370.1 22.138 369.047 22.138C368.275 22.138 367.607 22.6296 367.046 23.6128C366.484 24.5959 366.027 25.9302 365.676 27.6155C365.395 29.2307 365.185 31.0917 365.044 33.1983C364.904 35.2348 364.834 37.3416 364.834 39.5185H371.365V43.2053H364.834V79.6515C364.834 82.1097 365.43 84.3214 366.624 86.2879C367.818 88.254 369.328 89.6935 371.153 90.6067V93.24H338.499V90.6067ZM402.931 39.5185C405.811 39.5185 408.479 39.8696 410.937 40.5719C413.395 41.2039 415.502 42.1168 417.257 43.3107C419.083 44.4342 420.488 45.8036 421.471 47.4187C422.524 49.0339 423.051 50.7895 423.051 52.6856C423.051 54.8625 422.384 56.899 421.049 58.7952C419.785 60.6208 418.03 62.2362 415.783 63.6407C413.606 64.9746 411.042 66.0284 408.093 66.8006C405.144 67.5028 402.054 67.8539 398.823 67.8539C398.191 67.8539 397.559 67.8539 396.928 67.8539C396.295 67.7839 395.663 67.7134 395.031 67.6434C395.453 70.1716 396.19 72.4538 397.243 74.4899C398.296 76.5265 399.561 78.282 401.035 79.757C402.51 81.1614 404.16 82.2497 405.986 83.0224C407.812 83.7947 409.743 84.1813 411.779 84.1813C414.378 84.1813 416.73 83.5841 418.837 82.3903C420.944 81.1964 422.489 79.6164 423.472 77.6503L424.947 79.8625C424.315 81.8286 423.226 83.6546 421.681 85.3396C420.207 87.0251 418.416 88.5001 416.309 89.7639C414.202 91.0278 411.885 92.0111 409.357 92.7133C406.899 93.4155 404.336 93.7667 401.667 93.7667C398.367 93.7667 395.102 93.205 391.871 92.0812C388.641 90.8873 385.762 89.1668 383.233 86.9196C380.706 84.6725 378.669 81.8986 377.124 78.5981C375.579 75.2976 374.807 71.5055 374.807 67.2218C374.807 63.4296 375.439 59.8485 376.703 56.4777C378.037 53.1069 379.933 50.1575 382.391 47.6294C384.849 45.1013 387.798 43.1351 391.239 41.7306C394.75 40.2559 398.648 39.5185 402.931 39.5185ZM407.461 49.7361C407.461 47.9103 407.075 46.4005 406.302 45.2067C405.6 43.9426 404.617 43.3107 403.353 43.3107C402.159 43.3107 401.035 43.9075 399.982 45.1013C398.929 46.2249 397.981 47.6997 397.138 49.5255C396.365 51.3513 395.734 53.4229 395.242 55.7403C394.82 57.9875 394.61 60.2347 394.61 62.4818V64.2724C396.928 64.2023 398.894 63.6757 400.509 62.6924C402.124 61.6391 403.458 60.3752 404.511 58.9003C405.565 57.4257 406.302 55.8808 406.723 54.2656C407.215 52.5802 407.461 51.0704 407.461 49.7361ZM426.652 90.6067C428.478 89.834 429.988 88.7106 431.181 87.2357C432.375 85.6908 432.972 84.1108 432.972 82.4958V51.6322C432.972 49.0339 432.621 46.8921 431.919 45.2067C431.216 43.5213 430.269 42.5031 429.075 42.152V39.5185C430.479 39.5185 432.2 39.4483 434.236 39.3079C436.272 39.1674 438.309 38.9216 440.346 38.5705C442.382 38.2194 444.313 37.6927 446.139 36.9905C447.965 36.2882 449.369 35.3753 450.353 34.2517L452.986 35.6211V82.4958C452.986 84.3214 453.583 85.9718 454.776 87.4463C455.97 88.8512 457.48 89.9045 459.306 90.6067V93.24H426.652V90.6067ZM442.347 12.3418C445.928 12.3418 448.667 13.3952 450.563 15.5019C452.529 17.6086 453.513 20.1367 453.513 23.0861C453.513 24.4906 453.267 25.8599 452.775 27.1942C452.284 28.4582 451.546 29.5818 450.563 30.565C449.65 31.5481 448.492 32.3557 447.087 32.9877C445.753 33.5495 444.173 33.8304 442.347 33.8304C440.521 33.8304 438.906 33.5495 437.501 32.9877C436.097 32.3557 434.903 31.5481 433.92 30.565C433.007 29.5818 432.305 28.4582 431.814 27.1942C431.322 25.8599 431.076 24.4906 431.076 23.0861C431.076 20.0665 432.059 17.5384 434.025 15.5019C435.992 13.3952 438.766 12.3418 442.347 12.3418ZM461.22 90.6067C463.046 89.6935 464.556 88.254 465.75 86.2879C466.944 84.3214 467.54 82.1097 467.54 79.6515V55.7403C467.54 53.0718 467.189 50.8949 466.487 49.2095C465.785 47.4538 464.837 46.4005 463.643 46.0494V43.416C465.048 43.416 466.768 43.3458 468.804 43.2053C470.841 43.0648 472.878 42.8191 474.914 42.468C476.95 42.1168 478.882 41.5901 480.707 40.8879C482.533 40.1857 483.938 39.2727 484.921 38.1492L487.554 39.5185V48.1561C489.38 45.5578 491.733 43.4862 494.612 41.9412C497.491 40.3261 500.616 39.5185 503.987 39.5185C506.513 39.5185 508.796 39.975 510.831 40.8879C512.942 41.8008 514.73 43.0999 516.205 44.7853C517.751 46.4005 518.909 48.3668 519.684 50.6842C520.524 53.0015 520.944 55.5999 520.944 58.479V83.3385C520.944 86.7091 521.085 90.045 521.369 93.3455C521.719 96.646 522.28 99.5954 523.055 102.194C523.825 104.792 524.843 106.899 526.108 108.514C527.374 110.129 528.952 110.936 530.847 110.936C533.023 110.936 534.676 109.918 535.796 107.882C536.922 105.915 537.412 103.352 537.272 100.192C537.482 98.5066 538.36 97.2427 539.905 96.3999C541.521 95.5572 543.276 95.1361 545.172 95.1361C546.227 95.1361 547.282 95.2766 548.333 95.5572C549.388 95.8383 550.336 96.2594 551.176 96.8216C552.021 97.4533 552.689 98.191 553.179 99.0337C553.669 99.9465 553.917 101 553.917 102.194C553.917 104.019 553.319 105.67 552.124 107.144C551.003 108.689 549.458 110.024 547.492 111.147C545.597 112.271 543.416 113.113 540.96 113.675C538.5 114.307 535.936 114.623 533.27 114.623C528.634 114.623 524.353 113.71 520.421 111.885C516.486 110.059 513.045 107.566 510.098 104.406C507.218 101.316 504.972 97.7343 503.356 93.6611C501.741 89.5884 500.933 85.3046 500.933 80.8103V58.2684C500.933 55.0381 500.44 52.51 499.457 50.6842C498.474 48.8584 497.105 47.9454 495.349 47.9454C494.436 47.9454 493.523 48.2263 492.61 48.7881C491.768 49.2797 490.96 49.9468 490.188 50.7895C489.485 51.6322 488.889 52.6153 488.397 53.7389C487.975 54.8625 487.695 56.0563 487.554 57.3203V79.6515C487.554 82.1097 488.151 84.3214 489.345 86.2879C490.539 88.254 492.049 89.6935 493.874 90.6067V93.24H461.22V90.6067ZM553.94 39.5185C556.821 39.5185 559.487 39.8696 561.947 40.5719C564.403 41.2039 566.509 42.1168 568.264 43.3107C570.095 44.4342 571.495 45.8036 572.48 47.4187C573.536 49.0339 574.059 50.7895 574.059 52.6856C574.059 54.8625 573.391 56.899 572.06 58.7952C570.795 60.6208 569.039 62.2362 566.794 63.6407C564.613 64.9746 562.05 66.0284 559.104 66.8006C556.153 67.5028 553.062 67.8539 549.831 67.8539C549.201 67.8539 548.571 67.8539 547.936 67.8539C547.305 67.7839 546.67 67.7134 546.04 67.6434C546.46 70.1716 547.198 72.4538 548.253 74.4899C549.304 76.5265 550.569 78.282 552.044 79.757C553.52 81.1614 555.168 82.2497 556.993 83.0224C558.819 83.7947 560.752 84.1813 562.788 84.1813C565.388 84.1813 567.741 83.5841 569.847 82.3903C571.953 81.1964 573.498 79.6164 574.483 77.6503L575.954 79.8625C575.324 81.8286 574.236 83.6546 572.691 85.3396C571.215 87.0251 569.427 88.5001 567.317 89.7639C565.211 91.0278 562.895 92.0111 560.364 92.7133C557.909 93.4155 555.345 93.7667 552.675 93.7667C549.378 93.7667 546.11 93.205 542.879 92.0812C539.648 90.8873 536.772 89.1668 534.242 86.9196C531.716 84.6725 529.68 81.8986 528.135 78.5981C526.589 75.2976 525.814 71.5055 525.814 67.2218C525.814 63.4296 526.449 59.8485 527.71 56.4777C529.045 53.1069 530.941 50.1575 533.401 47.6294C535.857 45.1013 538.808 43.1351 542.249 41.7306C545.76 40.2559 549.659 39.5185 553.94 39.5185ZM558.469 49.7361C558.469 47.9103 558.086 46.4005 557.311 45.2067C556.611 43.9426 555.625 43.3107 554.36 43.3107C553.17 43.3107 552.044 43.9075 550.989 45.1013C549.939 46.2249 548.991 47.6997 548.146 49.5255C547.375 51.3513 546.745 53.4229 546.25 55.7403C545.83 57.9875 545.62 60.2347 545.62 62.4818V64.2724C547.936 64.2023 549.901 63.6757 551.517 62.6924C553.132 61.6391 554.468 60.3752 555.523 58.9003C556.573 57.4257 557.311 55.8808 557.731 54.2656C558.226 52.5802 558.469 51.0704 558.469 49.7361Z" fill="#7D5A50"/>
<path d="M177.241 148.808C177.241 143.36 178.114 138.331 179.86 133.72C181.607 129.11 184.016 125.164 187.09 121.881C190.233 118.598 193.97 116.048 198.301 114.232C202.701 112.346 207.521 111.403 212.76 111.403C215.134 111.403 217.335 111.578 219.361 111.927C221.386 112.276 223.272 112.661 225.019 113.08C226.765 113.429 228.371 113.778 229.838 114.128C231.305 114.477 232.667 114.651 233.924 114.651C234.553 114.651 235.077 114.581 235.496 114.442C235.915 114.302 236.195 113.953 236.334 113.394H237.382V136.026L236.334 136.34C235.846 132.987 234.832 130.018 233.296 127.434C231.759 124.78 229.978 122.545 227.952 120.729C225.927 118.912 223.726 117.55 221.351 116.642C219.046 115.664 216.776 115.175 214.541 115.175C209.023 115.175 204.727 118.074 201.654 123.872C198.65 129.6 197.148 137.772 197.148 148.389C197.148 159.076 198.685 167.354 201.758 173.221C204.902 179.019 209.302 181.918 214.96 181.918C217.056 181.918 219.256 181.498 221.561 180.66C223.866 179.822 225.996 178.53 227.952 176.784C229.978 175.037 231.759 172.837 233.296 170.183C234.832 167.528 235.846 164.385 236.334 160.753L237.382 161.067V183.699H236.334C236.195 183.14 235.915 182.791 235.496 182.651C235.077 182.511 234.553 182.442 233.924 182.442C232.667 182.442 231.305 182.616 229.838 182.965C228.371 183.315 226.765 183.699 225.019 184.118C223.272 184.467 221.351 184.816 219.256 185.165C217.23 185.515 214.995 185.689 212.55 185.689C207.312 185.689 202.527 184.816 198.196 183.07C193.865 181.254 190.128 178.739 186.985 175.526C183.912 172.243 181.502 168.331 179.755 163.791C178.079 159.251 177.241 154.257 177.241 148.808ZM262.512 131.73V167.039C262.512 170.252 263.001 172.767 263.979 174.583C264.956 176.399 266.319 177.308 268.065 177.308C268.973 177.308 269.846 177.063 270.684 176.574C271.592 176.015 272.396 175.317 273.094 174.479C273.863 173.64 274.491 172.662 274.98 171.545C275.469 170.427 275.748 169.24 275.818 167.982V147.866C275.818 145.211 275.469 143.046 274.771 141.369C274.072 139.623 273.129 138.575 271.942 138.226V135.607C273.339 135.607 275.05 135.572 277.076 135.502C279.171 135.362 281.302 135.152 283.467 134.873C285.702 134.594 287.868 134.21 289.963 133.72C292.128 133.162 294.049 132.498 295.726 131.73V169.554C295.726 172.208 296.075 174.409 296.774 176.155C297.472 177.831 298.415 178.844 299.602 179.193V181.813C298.206 181.813 296.494 181.883 294.469 182.022C292.443 182.162 290.417 182.406 288.391 182.756C286.366 183.105 284.445 183.629 282.629 184.327C280.813 185.026 279.416 185.934 278.438 187.052L275.818 185.689V177.098C274.002 179.682 271.662 181.778 268.799 183.384C265.935 184.921 262.826 185.689 259.473 185.689C256.959 185.689 254.653 185.235 252.558 184.327C250.533 183.419 248.751 182.162 247.214 180.555C245.748 178.879 244.595 176.888 243.757 174.583C242.989 172.208 242.604 169.624 242.604 166.83V147.866C242.604 145.211 242.255 143.046 241.557 141.369C240.858 139.623 239.915 138.575 238.728 138.226V135.607C240.125 135.607 241.836 135.572 243.862 135.502C245.957 135.362 248.088 135.152 250.253 134.873C252.488 134.594 254.653 134.21 256.749 133.72C258.914 133.162 260.836 132.498 262.512 131.73ZM300.632 111.823C302.028 111.823 303.74 111.753 305.766 111.613C307.791 111.473 309.817 111.229 311.842 110.879C313.868 110.53 315.789 110.006 317.605 109.308C319.421 108.609 320.818 107.701 321.796 106.584L324.415 107.946V175.317C324.415 178.669 324.555 181.987 324.834 185.27C325.184 188.553 325.743 191.487 326.511 194.071C327.279 196.656 328.292 198.752 329.549 200.358C330.807 201.964 332.378 202.768 334.264 202.768C336.43 202.768 338.071 201.755 339.189 199.729C340.306 197.773 340.795 195.224 340.656 192.081C340.865 190.404 341.738 189.147 343.275 188.309C344.882 187.47 346.628 187.052 348.514 187.052C349.562 187.052 350.609 187.191 351.657 187.47C352.705 187.75 353.648 188.169 354.486 188.728C355.324 189.357 355.988 190.09 356.477 190.928C356.966 191.836 357.21 192.884 357.21 194.071C357.21 195.888 356.617 197.529 355.429 198.996C354.312 200.533 352.774 201.86 350.819 202.977C348.933 204.095 346.767 204.933 344.323 205.492C341.878 206.121 339.328 206.435 336.674 206.435C332.064 206.435 327.803 205.527 323.891 203.711C319.98 201.895 316.557 199.415 313.623 196.272C310.759 193.198 308.524 189.636 306.918 185.585C305.311 181.533 304.508 177.273 304.508 172.802V124.081C304.508 121.427 304.159 119.262 303.46 117.585C302.762 115.839 301.819 114.791 300.632 114.442V111.823ZM352.419 117.48H354.515V131.73H366.145V135.397H354.515V169.135C354.515 172.068 355.003 174.409 355.982 176.155C357.029 177.901 358.566 178.774 360.592 178.774C361.709 178.774 362.757 178.495 363.735 177.936C364.783 177.377 365.586 176.609 366.145 175.631L367.611 177.831C366.913 179.089 365.9 180.206 364.573 181.184C363.316 182.092 361.884 182.86 360.277 183.489C358.74 184.118 357.099 184.607 355.353 184.956C353.606 185.235 351.93 185.375 350.324 185.375C347.111 185.375 344.491 184.851 342.465 183.803C340.44 182.686 338.833 181.324 337.646 179.717C336.528 178.111 335.725 176.364 335.236 174.479C334.817 172.592 334.607 170.811 334.607 169.135V144.932C334.607 142.277 334.328 140.042 333.769 138.226C333.28 136.34 332.127 135.397 330.312 135.397V131.73C332.337 131.73 334.538 131.276 336.912 130.368C339.287 129.46 341.557 128.307 343.723 126.91C345.888 125.513 347.739 123.976 349.276 122.3C350.883 120.624 351.93 119.017 352.419 117.48ZM392.765 131.73V167.039C392.765 170.252 393.254 172.767 394.232 174.583C395.21 176.399 396.572 177.308 398.318 177.308C399.226 177.308 400.1 177.063 400.938 176.574C401.846 176.015 402.649 175.317 403.347 174.479C404.116 173.64 404.745 172.662 405.234 171.545C405.722 170.427 406.002 169.24 406.072 167.982V147.866C406.072 145.211 405.722 143.046 405.024 141.369C404.325 139.623 403.382 138.575 402.195 138.226V135.607C403.592 135.607 405.303 135.572 407.329 135.502C409.424 135.362 411.555 135.152 413.72 134.873C415.955 134.594 418.121 134.21 420.216 133.72C422.382 133.162 424.302 132.498 425.979 131.73V169.554C425.979 172.208 426.328 174.409 427.027 176.155C427.725 177.831 428.668 178.844 429.856 179.193V181.813C428.459 181.813 426.747 181.883 424.722 182.022C422.696 182.162 420.671 182.406 418.645 182.756C416.619 183.105 414.698 183.629 412.882 184.327C411.066 185.026 409.669 185.934 408.691 187.052L406.072 185.689V177.098C404.255 179.682 401.916 181.778 399.052 183.384C396.188 184.921 393.079 185.689 389.726 185.689C387.212 185.689 384.907 185.235 382.811 184.327C380.786 183.419 379.005 182.162 377.468 180.555C376.001 178.879 374.848 176.888 374.01 174.583C373.242 172.208 372.858 169.624 372.858 166.83V147.866C372.858 145.211 372.508 143.046 371.81 141.369C371.111 139.623 370.169 138.575 368.981 138.226V135.607C370.378 135.607 372.089 135.572 374.115 135.502C376.211 135.362 378.341 135.152 380.506 134.873C382.742 134.594 384.907 134.21 387.003 133.72C389.168 133.162 391.089 132.498 392.765 131.73ZM431.409 182.546C433.224 181.638 434.726 180.206 435.914 178.25C437.101 176.294 437.695 174.094 437.695 171.649V147.866C437.695 145.211 437.346 143.046 436.647 141.369C435.949 139.623 435.006 138.575 433.818 138.226V135.607C435.215 135.607 436.927 135.537 438.952 135.397C440.978 135.257 443.004 135.013 445.029 134.664C447.055 134.314 448.976 133.79 450.792 133.092C452.608 132.394 454.005 131.485 454.983 130.368L457.602 131.73V138.016C459.069 134.524 460.885 131.171 463.051 127.958C465.286 124.675 467.8 121.776 470.595 119.262C473.458 116.677 476.567 114.616 479.92 113.08C483.342 111.543 486.905 110.775 490.607 110.775C494.518 110.775 497.766 111.613 500.351 113.29C503.006 114.966 504.332 117.306 504.332 120.309C504.332 121.846 503.949 123.208 503.178 124.396C502.413 125.583 501.432 126.561 500.246 127.33C499.129 128.098 497.871 128.692 496.474 129.11C495.077 129.46 493.715 129.635 492.388 129.635C490.991 129.635 489.734 129.425 488.616 129.006C487.498 128.517 486.8 127.783 486.521 126.805C486.66 126.037 486.59 125.374 486.311 124.815C486.032 124.256 485.577 123.802 484.949 123.452C484.39 123.034 483.727 122.754 482.958 122.614C482.26 122.405 481.526 122.3 480.758 122.3C478.034 122.3 475.309 123.348 472.585 125.443C469.861 127.469 467.382 130.018 465.146 133.092C462.911 136.096 461.095 139.379 459.698 142.941C458.301 146.503 457.602 149.821 457.602 152.894V171.649C457.602 174.094 458.196 176.294 459.384 178.25C460.571 180.206 462.073 181.638 463.889 182.546V185.165H431.409V182.546ZM501.432 131.73C504.294 131.73 506.951 132.079 509.393 132.778C511.839 133.406 513.936 134.314 515.682 135.502C517.498 136.619 518.894 137.981 519.875 139.588C520.921 141.195 521.443 142.941 521.443 144.827C521.443 146.992 520.78 149.018 519.454 150.904C518.199 152.72 516.448 154.326 514.216 155.723C512.049 157.051 509.5 158.098 506.568 158.867C503.631 159.565 500.559 159.915 497.346 159.915C496.717 159.915 496.089 159.915 495.46 159.915C494.831 159.845 494.202 159.775 493.574 159.705C493.993 162.22 494.727 164.49 495.774 166.515C496.822 168.541 498.079 170.287 499.546 171.754C501.012 173.151 502.656 174.234 504.472 175.002C506.288 175.77 508.207 176.155 510.233 176.155C512.82 176.155 515.159 175.561 517.255 174.374C519.347 173.186 520.883 171.615 521.864 169.659L523.33 171.859C522.699 173.815 521.621 175.631 520.08 177.308C518.614 178.984 516.835 180.451 514.739 181.708C512.642 182.965 510.336 183.943 507.824 184.642C505.378 185.34 502.828 185.689 500.175 185.689C496.892 185.689 493.644 185.13 490.431 184.013C487.218 182.825 484.354 181.114 481.839 178.879C479.324 176.644 477.299 173.885 475.762 170.601C474.225 167.319 473.457 163.547 473.457 159.286C473.457 155.514 474.086 151.952 475.343 148.599C476.67 145.246 478.556 142.312 481.001 139.798C483.446 137.283 486.38 135.327 489.802 133.93C493.295 132.464 497.171 131.73 501.432 131.73ZM505.938 141.893C505.938 140.077 505.555 138.575 504.785 137.388C504.084 136.131 503.108 135.502 501.853 135.502C500.664 135.502 499.546 136.096 498.498 137.283C497.451 138.401 496.507 139.868 495.669 141.684C494.901 143.5 494.272 145.56 493.784 147.866C493.364 150.101 493.155 152.336 493.155 154.571V156.352C495.46 156.282 497.416 155.758 499.022 154.781C500.629 153.733 501.955 152.476 503.006 151.009C504.052 149.542 504.785 148.005 505.205 146.399C505.695 144.722 505.938 143.22 505.938 141.893Z" fill="#7D5A50"/>
<path d="M87.9355 12C46.6855 12 12.9355 45.75 12.9355 87C12.9355 150 80.4353 203.25 83.4358 205.5C84.9355 206.25 86.4358 207 87.9355 207C89.4357 207 90.9354 206.25 92.4357 205.5C95.4356 203.25 162.936 150 162.936 87C162.936 45.75 129.185 12 87.9355 12ZM87.9355 117C71.4354 117 57.9356 103.5 57.9356 87C57.9356 70.5 71.4354 57 87.9355 57C104.436 57 117.936 70.5 117.936 87C117.936 103.5 104.436 117 87.9355 117Z" fill="#7D5A50"/>
<path d="M146.5 87.4014C146.5 119.745 120.28 145.965 87.936 145.965C55.5923 145.965 29.3726 119.745 29.3726 87.4014C29.3726 55.0577 55.5923 28.8379 87.936 28.8379C120.28 28.8379 146.5 55.0577 146.5 87.4014Z" fill="#FCDEC0"/>
<path d="M80.4701 131.653C103.802 131.653 122.716 112.738 122.716 89.4062H38.2236C38.2236 112.739 57.1374 131.653 80.4701 131.653Z" fill="#FFFCFC"/>
<path d="M121.135 96.8203C113.452 96.8203 107.223 103.049 107.223 110.731C107.223 118.415 113.452 124.643 121.135 124.643C128.817 124.643 135.047 118.415 135.047 110.731C135.047 103.049 128.817 96.8203 121.135 96.8203ZM121.135 120.496C115.741 120.496 111.369 116.123 111.369 110.73C111.369 105.337 115.741 100.964 121.135 100.964C126.527 100.964 130.9 105.337 130.9 110.73C130.9 116.125 126.527 120.496 121.135 120.496Z" fill="#FFFCFC"/>
<path d="M80.4679 95.8368C103.8 95.8368 122.714 92.958 122.714 89.4067C122.714 85.8554 103.8 82.9766 80.4679 82.9766C57.1356 82.9766 38.2212 85.8554 38.2212 89.4067C38.2212 92.958 57.1356 95.8368 80.4679 95.8368Z" fill="#FFFCFC"/>
<path fill-rule="evenodd" clip-rule="evenodd" d="M94.9589 79.3329C94.7786 79.3329 94.5977 79.259 94.4532 79.1482C84.8433 71.6959 90.2626 62.2147 90.6597 61.5504C94.8144 53.8769 90.6961 45.7973 90.6597 45.7236C90.4793 45.3546 90.5516 44.9488 90.8405 44.6537C91.1295 44.3954 91.563 44.3954 91.8883 44.6168C91.9964 44.6905 101.354 51.8478 95.6813 62.3625C90.6238 71.7328 95.5732 77.8202 95.6091 77.8941C95.898 78.2259 95.8622 78.7425 95.5732 79.038C95.4287 79.2221 95.1756 79.3329 94.9589 79.3329ZM82.7119 79.3329C82.531 79.3329 82.3507 79.259 82.2062 79.1482C72.5964 71.6959 78.0156 62.2147 78.4127 61.5504C82.531 53.84 78.4127 45.7973 78.3768 45.7236C78.196 45.3546 78.2682 44.9488 78.5572 44.6537C78.8825 44.3954 79.316 44.3954 79.605 44.6168C79.7136 44.6905 89.1062 51.8478 83.3985 62.3625C78.3404 71.7328 83.2899 77.8202 83.3262 77.8941C83.6152 78.2259 83.6152 78.7425 83.3262 79.038C83.1454 79.2221 82.9286 79.3329 82.7119 79.3329ZM70.4285 79.3329C70.2482 79.3329 70.0673 79.259 69.9228 79.1482C60.3132 71.6959 65.7322 62.2147 66.1296 61.5504C70.2841 53.84 66.1658 45.7973 66.1296 45.7236C65.9129 45.3546 66.0212 44.9488 66.3102 44.6537C66.5993 44.3954 67.0328 44.3954 67.358 44.6168C67.4661 44.6905 76.8234 51.8478 71.1515 62.3625C66.0935 71.6959 70.862 77.636 71.0793 77.8941C71.3682 78.2259 71.3318 78.7425 71.0429 79.038C70.862 79.2221 70.6453 79.3329 70.4285 79.3329Z" fill="#FFFCFC"/>
<path d="M80.6474 95.9897C100.629 95.9897 116.827 93.6589 116.827 90.7839C116.827 87.9089 100.629 85.5781 80.6474 85.5781C60.6663 85.5781 44.4683 87.9089 44.4683 90.7839C44.4683 93.6589 60.6663 95.9897 80.6474 95.9897Z" fill="#7D5A50"/>
<path d="M80.7528 109.449C80.6844 107.744 82.9826 105.549 84.4448 104.331C84.2378 104.205 84.0216 104.094 83.7962 103.997C80.1895 102.437 75.5541 105.134 73.4438 110.018C71.7003 114.054 72.2228 118.316 74.4889 120.558C80.0152 117.684 80.7528 109.449 80.7528 109.449Z" fill="#B4846C"/>
<path d="M85.4357 104.76C83.9745 105.98 81.6753 108.173 81.7437 109.88C81.7437 109.88 81.0072 118.113 75.4814 120.988C75.9584 121.459 76.5135 121.842 77.1425 122.114C80.7492 123.671 85.3846 120.978 87.4949 116.093C89.4731 111.515 88.5312 106.638 85.4357 104.76Z" fill="#7D5A50"/>
</svg>
